HIERARCHY
ROOT pelvis
{
  OFFSET 0 100 0
  CHANNELS 6 Xposition Yposition Zposition Zrotation Xrotation Yrotation
  JOINT pelvis_right_femur
  {
    OFFSET -10.78128 -3.44521 -0.5502486
    CHANNELS 3 Zrotation Xrotation Yrotation
    JOINT right_femur_tibia
    {
      OFFSET -0.8047443 -44.0398 -0.1307829
      CHANNELS 3 Zrotation Xrotation Yrotation
      JOINT right_tibia_foot
      {
        OFFSET 3.006224 -47.83518 -5
        CHANNELS 3 Zrotation Xrotation Yrotation
        End Site
        {
          OFFSET 0 -5 15
        }
      }
    }
  }
  JOINT pelvis_left_femur
  {
    OFFSET 10.78128 -3.44521 -0.5502486
    CHANNELS 3 Zrotation Xrotation Yrotation
    JOINT left_femur_tibia
    {
      OFFSET 0.8047443 -44.0398 -0.1307829
      CHANNELS 3 Zrotation Xrotation Yrotation
      JOINT left_tibia_foot
      {
        OFFSET -4.370144 -48.10324 -4.275266
        CHANNELS 3 Zrotation Xrotation Yrotation
        End Site
        {
          OFFSET 0 -5 15
        }
      }
    }
  }
  JOINT pelvis_spine1
  {
    OFFSET 0 6.468898 -3.129235
    CHANNELS 3 Zrotation Xrotation Yrotation
    JOINT spine1
    {
      OFFSET 0 23.15396 4.99043
      CHANNELS 3 Zrotation Xrotation Yrotation
      JOINT spine2
      {
        OFFSET 0 20.79997 -5.064912
        CHANNELS 3 Zrotation Xrotation Yrotation
        JOINT neck
        {
          OFFSET 0 14.38658 9.616178
          CHANNELS 3 Zrotation Xrotation Yrotation
          End Site
          {
            OFFSET 0 20 0
          }
        }
      }
      JOINT right_manubrium
      {
        OFFSET -5.722621 16.35077 3.967754
        CHANNELS 3 Zrotation Xrotation Yrotation
        JOINT right_clavicle
        {
          OFFSET -13.16364 1.694482 -4.693211
          CHANNELS 3 Zrotation Xrotation Yrotation
          JOINT right_humerus
          {
            OFFSET -28.5034 -0.3100689 -2.792744
            CHANNELS 3 Zrotation Xrotation Yrotation
            JOINT right_radius
            {
              OFFSET -25.15693 0.02248979 -1.271978
              CHANNELS 3 Zrotation Xrotation Yrotation
              End Site
              {
                OFFSET -15 0 0
              }
            }
          }
        }
      }
      JOINT left_manubrium
      {
        OFFSET 5.722621 16.35077 3.967754
        CHANNELS 3 Zrotation Xrotation Yrotation
        JOINT left_clavicle
        {
          OFFSET 13.16364 1.694482 -4.693211
          CHANNELS 3 Zrotation Xrotation Yrotation
          JOINT left_humerus
          {
            OFFSET 29.39168 -1.063119 -2.237045
            CHANNELS 3 Zrotation Xrotation Yrotation
            JOINT left_radius
            {
              OFFSET 24.59957 -0.9528479 0.9047498
              CHANNELS 3 Zrotation Xrotation Yrotation
              End Site
              {
                OFFSET 15 -0 -0
              }
            }
          }
        }
      }
    }
  }
}
MOTION
Frames: 21
Frame Time: 0.0416666666667
-1534.357 98.31258 1533.073 -0.3961622 -0.03388869 -94.63214 4.282541 -30.46307 -2.811179 -0 7.945227 -0 -9.129009 3.219562 0.5512179 -5.954392 14.88633 -11.34537 -0 17.25273 -0 6.807584 -18.38237 16.07293 -1.931546 -1.142088 3.527297 1.598265 10.66363 -7.101818 1.235501 21.00868 7.666516 4.3396 -23.67309 9.165651 5.115698 -17.67093 11.38131 88.89562 37.5628 -20.07705 -0 0 10.72964 -12.10184 9.178586 6.352262 7.424971 -21.47597 -3.14775 -86.92203 17.0462 14.21561 0 0 -20.87761 16.33217 10.4116 -5.646225
-1540.351 97.81267 1532.501 -1.779817 0.07252408 -94.40634 4.3387 -28.46253 -3.75464 -0 6.478072 -0 -9.274015 5.024804 0.1424684 -5.591023 15.23226 -9.426041 -0 22.21953 -0 5.401638 -16.76902 14.67561 -1.858078 -0.9882854 3.382158 1.405371 10.66104 -6.978883 1.19129 21.07266 7.796486 4.538518 -23.35699 9.050484 5.051451 -17.42646 11.37011 89.0198 37.42155 -20.02787 -0 0 10.34622 -12.86418 9.213906 6.637469 7.625752 -21.58912 -3.30716 -86.59648 16.57258 13.64233 0 0 -20.91732 16.52673 10.28263 -6.023663
-1546.867 97.6618 1531.795 -3.331372 0.2911096 -94.36689 4.774183 -25.60241 -3.958461 -0 6.293035 -0 -9.202099 6.148749 -0.6755077 -5.145567 15.12557 -7.672107 -0 28.74338 -0 3.726531 -14.62746 13.71242 -1.781918 -0.8233082 3.266335 1.055126 10.72129 -6.766613 1.149494 21.17873 7.939574 4.863835 -22.7969 8.82539 4.950114 -17.20467 11.3183 89.09155 37.2034 -19.7805 -0 0 10.10704 -13.95676 9.2005 6.907346 7.951313 -21.78996 -3.542473 -86.31603 15.77158 13.02654 0 0 -20.64096 16.92112 10.25513 -6.754864
-1553.751 98.03549 1530.952 -4.892688 0.6267836 -94.60084 5.491242 -21.91101 -3.404562 -0 7.346495 -0 -8.879305 6.435947 -1.804656 -4.617047 14.20107 -6.238676 -0 36.86163 -0 1.719197 -12.06254 13.23889 -1.717503 -0.6668945 3.195766 0.5529099 10.85081 -6.449888 1.113846 21.35527 8.063546 5.306814 -21.96584 8.457599 4.815507 -17.04212 11.23209 89.01822 36.81749 -19.23201 -0 0 10.11175 -15.40331 9.137829 7.170411 8.355911 -22.05309 -3.8693 -86.21031 14.71145 12.51912 0 0 -19.79671 17.4242 10.44208 -7.755437
-1560.768 99.05235 1529.992 -6.197159 1.009729 -95.16258 6.228687 -17.49793 -2.245672 -0 9.220544 -0 -8.312101 5.782046 -2.968643 -4.049038 11.93853 -5.271626 -0 46.14787 -0 -0.5576412 -9.31831 13.21444 -1.680202 -0.5478915 3.202023 -0.06705603 11.05975 -6.018573 1.083314 21.62511 8.122904 5.837006 -20.867 7.913878 4.649192 -17.01035 11.13544 88.68639 36.14925 -18.26057 -0 0 10.50059 -17.19143 9.042233 7.449173 8.747238 -22.33921 -4.308577 -86.44387 13.50524 12.36343 0 0 -18.08485 17.88929 10.94922 -8.864763
-1567.628 100.6855 1528.972 -6.932846 1.259105 -96.0284 6.609029 -12.58574 -0.8165775 -0 11.01227 -0 -7.551566 4.194992 -3.739202 -3.526304 7.789522 -4.832554 -0 55.38265 -0 -2.847994 -6.81516 13.45771 -1.67218 -0.5021145 3.337311 -0.728708 11.36299 -5.481085 1.048652 21.98034 8.066712 6.390517 -19.56878 7.181423 4.444869 -17.22319 11.07608 88.01536 35.08458 -16.78729 -0 0 11.4321 -19.22341 8.961307 7.77775 8.988411 -22.60823 -4.877619 -87.17256 12.29665 12.88223 0 0 -15.29148 18.12472 11.81101 -9.832028
-1574.076 102.6894 1527.965 -6.942672 1.150549 -97.06531 6.337372 -7.456383 0.4884123 -0 11.6321 -0 -6.665518 1.76415 -3.758986 -3.082475 1.539272 -4.817453 -0 62.43931 -0 -4.763839 -5.055938 13.71869 -1.663499 -0.5638303 3.664306 -1.314081 11.77745 -4.886144 0.989733 22.35326 7.855301 6.865032 -18.22694 6.291124 4.181281 -17.81735 11.11879 87.04707 33.54426 -14.88646 -0 0 13.01552 -21.27947 8.98154 8.189673 8.931751 -22.84821 -5.57643 -88.46195 11.21309 14.39043 0 0 -11.51636 17.9253 12.91478 -10.32753
-1579.993 104.6332 1527.032 -6.371589 0.6551291 -98.06587 5.506768 -2.397342 1.437332 -0 10.61516 -0 -5.77099 -1.47581 -3.027712 -2.532289 -6.287043 -4.92549 -0 64.79242 -0 -5.966422 -4.338883 13.88634 -1.588403 -0.7487236 4.219869 -1.689962 12.308 -4.333823 0.8801946 22.61815 7.478319 7.129932 -17.05428 5.329769 3.826638 -18.89028 11.31874 85.99635 31.5249 -12.85274 -0 0 15.20982 -23.03899 9.212159 8.70845 8.474291 -23.08491 -6.371273 -90.20666 10.32158 17.04053 0 0 -7.330017 17.12891 13.98933 -10.0025
-1585.418 106.0774 1526.201 -5.452559 0.1040173 -98.85561 4.68905 2.17552 2.00455 -0 8.644165 -0 -5.161938 -5.479941 -1.872747 -1.464456 -14.46745 -4.688668 -0 60.75017 -0 -6.196827 -4.453847 14.02534 -1.381678 -1.031134 4.966331 -1.765782 12.9101 -3.940185 0.7069538 22.65404 6.96477 7.05542 -16.23224 4.439577 3.36355 -20.41681 11.67901 85.15911 29.17256 -11.07169 -0 0 17.76692 -24.17289 9.726248 9.362271 7.600299 -23.31094 -7.168701 -92.11585 9.653422 20.68704 0 0 -3.634676 15.69398 14.71998 -8.607619
-1590.526 106.7781 1525.498 -4.257528 -0.06928681 -99.38291 4.498139 5.72309 2.219571 -0 6.978303 -0 -5.136529 -9.823783 -0.6773929 0.4031931 -21.57717 -3.655663 -0 50.82833 -0 -5.279167 -4.765801 14.14813 -1.049942 -1.333017 5.768713 -1.572441 13.43965 -3.749367 0.4962674 22.43951 6.38818 6.575621 -15.82043 3.797752 2.811851 -22.19503 12.10625 84.70643 26.89274 -9.705205 -0 0 20.30328 -24.5032 10.45737 10.20305 6.417931 -23.37076 -7.784136 -93.78757 9.258427 24.82719 0 0 -1.231657 13.78888 14.93623 -6.189384
-1595.585 106.7498 1524.947 -2.984597 0.2564055 -99.72574 4.973568 8.1221 2.166876 -0 6.452763 -0 -5.490564 -13.66195 0.2245905 2.738954 -26.42546 -1.898189 -0 38.06827 -0 -3.552086 -4.755316 14.25523 -0.7127275 -1.554516 6.439171 -1.297472 13.67323 -3.664704 0.3134953 22.10108 5.860845 5.786375 -15.72614 3.532324 2.224793 -23.87001 12.41736 84.54005 25.3006 -8.513545 -0 0 22.47384 -24.1957 11.13715 11.26452 5.188608 -23.00234 -7.990208 -94.87357 9.175914 28.65951 0 0 -0.3205298 11.80989 14.74248 -3.275088
-1600.836 106.1636 1524.537 -2.217238 0.8330181 -100.0375 5.551658 10.03841 1.91188 -0 7.034977 -0 -5.744119 -16.27036 0.6329182 4.541174 -28.51272 -0.4169956 -0 26.50627 -0 -2.041506 -4.456939 14.61692 -0.5195943 -1.642394 6.855316 -1.159788 13.4852 -3.520013 0.2159195 21.83755 5.487805 4.957957 -15.77128 3.607642 1.683868 -25.08913 12.47696 84.37651 24.78297 -7.150977 -0 0 24.10174 -23.7241 11.45696 12.45678 4.222983 -22.12868 -7.717219 -95.30815 9.357965 31.43217 0 0 -0.3326505 10.18952 14.44307 -0.6949027
-1606.374 105.2314 1524.206 -2.440401 1.329455 -100.4507 5.682127 12.24642 1.384795 -0 8.220688 -0 -5.928711 -17.47313 0.5987018 4.975212 -28.34745 -0.3676744 -0 18.70555 -0 -1.598316 -4.290736 15.58064 -0.5042944 -1.622634 7.039474 -1.208703 13.01348 -3.262537 0.2026997 21.75323 5.301676 4.35196 -15.81964 3.841804 1.287289 -25.72498 12.3414 84.04049 25.10348 -5.65585 -0 0 25.16125 -23.45712 11.36881 13.53647 3.660674 -21.04337 -7.180147 -95.34786 9.665904 32.93062 0 0 -0.4775742 9.132976 14.26387 0.9969116
-1612.16 104.167 1523.876 -3.5034 1.60312 -101.0038 5.288499 14.74729 0.6338388 -0 9.759583 -0 -6.425173 -17.47142 0.3445075 4.175794 -26.93237 -1.805497 -0 14.70081 -0 -2.087133 -4.525034 17.07588 -0.5876439 -1.553695 7.088524 -1.338523 12.52824 -2.982781 0.2266387 21.80738 5.264202 4.051109 -15.82872 4.06221 1.089717 -25.90281 12.1704 83.61274 25.71151 -4.398429 -0 0 25.7073 -23.4135 11.07729 14.27087 3.430336 -20.14872 -6.681373 -95.28798 9.948751 33.47667 0 0 -0.3916864 8.600153 14.21924 1.790811
-1618.126 103.1519 1523.491 -4.891576 1.69645 -101.6587 4.595801 17.02732 -0.1111032 -0 11.71739 -0 -7.326134 -16.54003 0.0719098 2.809156 -25.03147 -3.936538 -0 13.19766 -0 -2.835018 -5.074241 18.69765 -0.6939868 -1.47306 7.073521 -1.455456 12.18946 -2.769613 0.244897 21.92175 5.326604 4.006562 -15.80512 4.1982 1.075542 -25.80719 12.05902 83.245 26.26989 -3.63159 -0 0 25.83686 -23.46621 10.76637 14.59313 3.407281 -19.63236 -6.372151 -95.25867 10.11906 33.48002 0 0 -0.08800938 8.469698 14.24015 1.926276
-1624.207 102.3008 1523.024 -6.237414 1.694769 -102.3556 3.811166 18.72561 -0.6852216 -0 14.13112 -0 -8.461283 -14.9368 -0.1235976 1.367552 -23.00442 -6.084196 -0 13.01181 -0 -3.387206 -5.736617 20.13515 -0.7951616 -1.393387 7.025939 -1.533269 12.01357 -2.645137 0.2408008 22.05094 5.457773 4.144858 -15.76457 4.251673 1.197145 -25.55826 12.0174 83.00034 26.71592 -3.357139 -0 0 25.65974 -23.53323 10.4948 14.56339 3.510954 -19.47219 -6.252267 -95.27019 10.16104 33.18675 -0 0 0.336336 8.635318 14.27672 1.615532
-1630.348 101.6692 1522.467 -7.416304 1.655808 -103.0398 3.044649 19.75587 -1.065777 -0 16.92835 -0 -9.666057 -12.87899 -0.2226737 0.05062139 -20.95966 -7.964874 -0 13.4534 -0 -3.61801 -6.386694 21.28501 -0.8889611 -1.31832 6.96012 -1.579221 11.95872 -2.597 0.214649 22.17478 5.637865 4.406531 -15.72258 4.246253 1.406878 -25.21944 12.02162 82.87229 27.0946 -3.466361 -0 0 25.27577 -23.58618 10.2545 14.27193 3.702317 -19.57546 -6.265697 -95.29538 10.09419 32.7078 -0 0 0.7952167 9.01787 14.30124 0.9980893
-1636.503 101.2781 1521.826 -8.422107 1.608762 -103.6678 2.345842 20.15592 -1.303872 -0 19.99643 -0 -10.85659 -10.53992 -0.233344 -1.093853 -18.90226 -9.523857 -0 14.15972 -0 -3.556009 -6.981745 22.1494 -0.9790894 -1.250627 6.884742 -1.606203 11.98037 -2.608517 0.1732099 22.28195 5.850861 4.747204 -15.69354 4.205384 1.666834 -24.82748 12.04492 82.83722 27.45921 -3.848785 -0 0 24.76401 -23.61736 10.02611 13.79438 3.962625 -19.855 -6.355098 -95.30532 9.945613 32.09122 -0 0 1.217218 9.558822 14.29682 0.1662142
-1642.626 101.1292 1521.11 -9.281175 1.567189 -104.2066 1.7369 19.99009 -1.472046 -0 23.21104 -0 -12.00815 -8.062478 -0.1665215 -2.069665 -16.8059 -10.7925 -0 14.92552 -0 -3.272649 -7.522339 22.75948 -1.068209 -1.193585 6.804913 -1.624098 12.04664 -2.667394 0.1256525 22.36456 6.081871 5.132688 -15.68974 4.148543 1.949359 -24.40689 12.06674 82.8763 27.84435 -4.422182 -0 0 24.18166 -23.62365 9.799038 13.18628 4.281404 -20.24597 -6.476205 -95.27819 9.741394 31.35876 -0 0 1.543526 10.2138 14.25482 -0.8145055
-1648.675 101.2095 1520.332 -10.02288 1.537824 -104.633 1.227726 19.31867 -1.644182 -0 26.42931 -0 -13.12916 -5.574637 -0.02871854 -2.89182 -14.63975 -11.82741 -0 15.61802 -0 -2.843501 -8.027826 23.1492 -1.156824 -1.150478 6.722369 -1.638755 12.1381 -2.766004 0.0820263 22.41719 6.316561 5.535297 -15.72041 4.091714 2.234966 -23.97489 12.0734 82.97906 28.26492 -5.131001 -0 0 23.56704 -23.6018 9.573773 12.48863 4.650962 -20.70266 -6.598167 -95.19875 9.50568 30.52018 -0 0 1.725356 10.94791 14.17441 -1.893835
-1654.608 101.4912 1519.509 -10.67284 1.525002 -104.9335 0.8211418 18.1959 -1.889023 -0 29.4751 -0 -14.24365 -3.201673 0.1788714 -3.572894 -12.37873 -12.68908 -0 16.13859 -0 -2.33851 -8.524442 23.34895 -1.243487 -1.124094 6.636067 -1.652409 12.2447 -2.900483 0.05196898 22.43647 6.541165 5.931684 -15.79098 4.047394 2.50964 -23.54417 12.05723 83.14225 28.71926 -5.93997 -0 0 22.94394 -23.54751 9.359158 11.73342 5.063438 -21.19362 -6.701929 -95.05564 9.260454 29.58003 -0 0 1.719618 11.73241 14.06061 -3.030122
